<!DOCTYPE svg PUBLIC "-//W3C//DTD SVG 1.1//EN" "http://www.w3.org/Graphics/SVG/1.1/DTD/svg11.dtd">
<!-- Uploaded to: SVG Repo, www.svgrepo.com, Transformed by: SVG Repo Mixer Tools -->
<svg fill="#000000" width="239px" height="239px" viewBox="0 0 24 24" id="tax" data-name="Flat Line" xmlns="http://www.w3.org/2000/svg" class="icon flat-line">
<g id="SVGRepo_bgCarrier" stroke-width="0"/>
<g id="SVGRepo_tracerCarrier" stroke-linecap="round" stroke-linejoin="round" stroke="#156bf4" stroke-width="4.8">
<path id="secondary" d="M17.5,16.5A7.5,7.5,0,0,1,13,3H4A1,1,0,0,0,3,4V20a1,1,0,0,0,1,1H17a1,1,0,0,0,1-1V16.47A4.19,4.19,0,0,1,17.5,16.5Z" style="fill: #00bbfa; stroke-width:1.224;"/>
<path id="primary" d="M14,17H7m4-4H7M21,6l-6,6" style="fill: none; stroke: #000000; stroke-linecap: round; stroke-linejoin: round; stroke-width:1.224;"/>
<line id="primary-upstroke" x1="15.45" y1="6.5" x2="15.55" y2="6.5" style="fill: none; stroke: #000000; stroke-linecap: round; stroke-linejoin: round; stroke-width:1.224;"/>
<line id="primary-upstroke-2" data-name="primary-upstroke" x1="20.45" y1="11.5" x2="20.55" y2="11.5" style="fill: none; stroke: #000000; stroke-linecap: round; stroke-linejoin: round; stroke-width:1.224;"/>
<path id="primary-2" data-name="primary" d="M18,16v4a1,1,0,0,1-1,1H4a1,1,0,0,1-1-1V4A1,1,0,0,1,4,3h9" style="fill: none; stroke: #000000; stroke-linecap: round; stroke-linejoin: round; stroke-width:1.224;"/>
</g>
<g id="SVGRepo_iconCarrier">
<path id="secondary" d="M17.5,16.5A7.5,7.5,0,0,1,13,3H4A1,1,0,0,0,3,4V20a1,1,0,0,0,1,1H17a1,1,0,0,0,1-1V16.47A4.19,4.19,0,0,1,17.5,16.5Z" style="fill: #00bbfa; stroke-width:1.224;"/>
<path id="primary" d="M14,17H7m4-4H7M21,6l-6,6" style="fill: none; stroke: #000000; stroke-linecap: round; stroke-linejoin: round; stroke-width:1.224;"/>
<line id="primary-upstroke" x1="15.45" y1="6.5" x2="15.55" y2="6.5" style="fill: none; stroke: #000000; stroke-linecap: round; stroke-linejoin: round; stroke-width:1.224;"/>
<line id="primary-upstroke-2" data-name="primary-upstroke" x1="20.45" y1="11.5" x2="20.55" y2="11.5" style="fill: none; stroke: #000000; stroke-linecap: round; stroke-linejoin: round; stroke-width:1.224;"/>
<path id="primary-2" data-name="primary" d="M18,16v4a1,1,0,0,1-1,1H4a1,1,0,0,1-1-1V4A1,1,0,0,1,4,3h9" style="fill: none; stroke: #000000; stroke-linecap: round; stroke-linejoin: round; stroke-width:1.224;"/>
</g>
</svg>